<svg xmlns="http://www.w3.org/2000/svg" width="20" height="20"><rect id="backgroundrect" width="100%" height="100%" x="0" y="0" fill="none" stroke="none"/><g class="currentLayer" style=""><title>Layer 1</title><path fill="#ffffff" d="M12.36,12.23 a3.7600000000000002,3.7600000000000002 0 0 1 -4.72,0 a1,1 0 0 0 -1.28,1.54 a5.68,5.68 0 0 0 7.28,0 a1,1 0 1 0 -1.28,-1.54 zM7,9 a1,1 0 1 0 -1,-1 a1,1 0 0 0 1,1 zm6,-2 a1,1 0 1 0 1,1 a1,1 0 0 0 -1,-1 zm-3,-7 a10,10 0 1 0 10,10 A10,10 0 0 0 10,0 zm0,18 a8,8 0 1 1 8,-8 a8,8 0 0 1 -8,8 z" id="svg_1" class="" stroke="#ffffff" stroke-opacity="1" fill-opacity="1"/></g></svg>