<svg xmlns="http://www.w3.org/2000/svg" width="20" height="20" style=""><rect id="backgroundrect" width="100%" height="100%" x="0" y="0" fill="none" stroke="none"/><g class="currentLayer" style=""><title>Layer 1</title><path fill="#ffffff" d="M17,0 H3 a3,3 0 0 0 -3,3 v14 a3,3 0 0 0 3,3 h14 a2.81,2.81 0 0 0 0.49000000000000005,-0.05000000000000001 l0.30000000000000004,-0.07 H17.91 l0.37000000000000005,-0.14 l0.13,-0.07 c0.1,-0.06000000000000001 0.21000000000000002,-0.11000000000000001 0.31000000000000005,-0.18000000000000002 a3.79,3.79 0 0 0 0.38000000000000006,-0.32000000000000006 l0.07,-0.09000000000000002 a2.6900000000000004,2.6900000000000004 0 0 0 0.27,-0.32000000000000006 l0.09000000000000002,-0.13 a2.31,2.31 0 0 0 0.18000000000000002,-0.35000000000000003 a1,1 0 0 0 0.07,-0.15000000000000002 c0.05000000000000001,-0.12000000000000001 0.08000000000000002,-0.25 0.12000000000000001,-0.38000000000000006 v-0.15000000000000002 a2.6,2.6 0 0 0 0.1,-0.6000000000000001 V3 a3,3 0 0 0 -3,-3 zM3,18 a1,1 0 0 1 -1,-1 v-4.3100000000000005 l3.29,-3.3 a1,1 0 0 1 1.42,0 l8.6,8.61 zm15,-1 a1,1 0 0 1 -0.07,0.36000000000000004 a1,1 0 0 1 -0.08000000000000002,0.14 a0.9400000000000001,0.9400000000000001 0 0 1 -0.09000000000000002,0.12000000000000001 l-5.35,-5.35 l0.8800000000000001,-0.8800000000000001 a1,1 0 0 1 1.42,0 l3.29,3.3 zm0,-5.14 L16.12,10 a3.08,3.08 0 0 0 -4.24,0 l-0.8800000000000001,0.8800000000000001 L8.12,8 a3.08,3.08 0 0 0 -4.24,0 L2,9.86 V3 a1,1 0 0 1 1,-1 h14 a1,1 0 0 1 1,1 z" id="svg_1" class="" fill-opacity="1"/></g></svg>